<svg width="112" height="18" viewBox="0 0 112 18" fill="none" xmlns="http://www.w3.org/2000/svg">
<path fill-rule="evenodd" clip-rule="evenodd" d="M69.6787 7.24138C69.6261 7.14328 69.5691 7.04776 69.5104 6.95483C69.0521 6.22596 68.4385 5.60553 67.7144 5.13998C67.8249 5.61241 67.9155 6.18208 67.9475 6.83608C67.9509 6.92299 67.9544 7.01076 67.9561 7.10112C67.957 7.12521 67.9578 7.14758 67.9578 7.17254C67.9682 7.86268 67.9078 8.56573 67.7774 9.27652C67.7559 9.39613 67.7326 9.51488 67.7075 9.63536C67.5695 10.2816 67.3744 10.9347 67.125 11.5896C67.0499 11.7875 66.9697 11.9854 66.8842 12.1842C67.5134 11.9536 68.1045 11.6748 68.6551 11.3504C68.681 11.334 68.7061 11.3185 68.732 11.3031C68.8088 11.2574 68.8839 11.2101 68.9572 11.1628C69.5527 10.7807 70.03 10.3832 70.4011 10.02C70.395 9.01234 70.1344 8.06662 69.6787 7.24138" fill="#D5BB57"/>
<path fill-rule="evenodd" clip-rule="evenodd" d="M68.914 11.8512C68.8398 11.8985 68.7639 11.9441 68.687 11.9906C68.6706 12.0009 68.6543 12.0121 68.6379 12.0216C68.0001 12.4011 67.3071 12.7169 66.5675 12.9707C66.4527 13.0103 66.3379 13.0482 66.2214 13.0843C65.6362 13.265 65.0235 13.4096 64.3849 13.512C64.157 13.549 63.9257 13.5791 63.691 13.6058C64.1976 14.0232 64.7266 14.3854 65.2755 14.6927C65.2919 14.7021 65.3092 14.7099 65.3264 14.7202C65.405 14.7641 65.4835 14.8054 65.5612 14.845C66.2205 15.1849 66.8289 15.4026 67.345 15.5437C68.1908 15.0455 68.9002 14.3424 69.4042 13.5025C69.4612 13.4079 69.5164 13.3098 69.5673 13.2117C69.9428 12.4983 70.174 11.6972 70.2224 10.8487C69.8746 11.1671 69.4413 11.5139 68.914 11.8512" fill="#D5BB57"/>
<path fill-rule="evenodd" clip-rule="evenodd" d="M65.1055 15.1548C65.0287 15.1143 64.9493 15.073 64.8708 15.0291C64.8578 15.0214 64.8449 15.0154 64.8311 15.0076C64.1968 14.6531 63.5875 14.2254 63.0092 13.728C62.9169 13.648 62.8263 13.5671 62.7348 13.4845C62.2722 13.0602 61.8303 12.5921 61.41 12.0801C61.2935 11.9355 61.177 11.7867 61.0631 11.6361C60.9673 12.2393 60.9224 12.8365 60.9293 13.4217C60.9293 13.4561 60.9302 13.4896 60.9311 13.5249C60.9337 13.6144 60.9354 13.7031 60.9397 13.7908C60.9777 14.5481 61.1002 15.1961 61.2435 15.7167C62.0349 16.1504 62.9385 16.4068 63.8982 16.4318C63.9517 16.4326 64.0043 16.4344 64.0578 16.4344C64.1148 16.4344 64.1717 16.4326 64.2296 16.4309C65.1159 16.406 65.9522 16.1839 66.697 15.8096C66.2214 15.6633 65.6829 15.4551 65.1055 15.1548" fill="#D5BB57"/>
<path fill-rule="evenodd" clip-rule="evenodd" d="M62.935 5.70363C62.9134 5.68986 62.891 5.67868 62.8677 5.66663C62.79 5.6236 62.7106 5.5823 62.6329 5.54185C61.9805 5.20539 61.3772 4.98768 60.8629 4.84741C60.0128 5.34049 59.2973 6.03924 58.7864 6.87653C58.7295 6.97204 58.6742 7.06756 58.6216 7.16566C58.2375 7.88678 57.9993 8.69653 57.9493 9.55792C58.3005 9.2335 58.7415 8.8781 59.2809 8.53475C59.3543 8.48742 59.4294 8.44096 59.507 8.39449C59.5234 8.38502 59.539 8.37384 59.5571 8.36351C60.194 7.98574 60.887 7.66907 61.6266 7.41607C61.7414 7.37563 61.8562 7.33863 61.9736 7.30334C62.5578 7.12177 63.1706 6.97807 63.8101 6.8748C64.0371 6.83866 64.2684 6.80768 64.5031 6.78015C64.0017 6.3671 63.4778 6.0074 62.935 5.70363" fill="#D5BB57"/>
<path fill-rule="evenodd" clip-rule="evenodd" d="M67.2682 6.94709C67.2674 6.91783 67.2665 6.88943 67.2656 6.86104C67.2639 6.7724 67.2605 6.68291 67.257 6.59686C67.2199 5.86111 67.1043 5.23034 66.967 4.71833C66.1679 4.27172 65.2522 4.00926 64.2778 3.98259C64.2243 3.98087 64.17 3.98087 64.1156 3.98087C64.0595 3.98087 64.0025 3.98087 63.9473 3.98259C63.0774 4.00668 62.2549 4.22095 61.5187 4.58409C61.99 4.72866 62.5216 4.93691 63.092 5.23293C63.1688 5.27251 63.2465 5.31296 63.3259 5.35684C63.3397 5.36545 63.3518 5.37233 63.3656 5.37922C63.9999 5.73375 64.6084 6.16143 65.1875 6.65967C65.2798 6.73884 65.3704 6.81973 65.4619 6.9032C65.9236 7.32572 66.3664 7.79298 66.7867 8.30672C66.9049 8.45042 67.0197 8.59929 67.1336 8.75074C67.2303 8.14149 67.276 7.53827 67.2682 6.94709" fill="#D5BB57"/>
<path fill-rule="evenodd" clip-rule="evenodd" d="M61.3099 8.20432C61.2996 8.20776 61.2918 8.2112 61.2814 8.21464L61.3082 8.20948C61.3082 8.20776 61.3099 8.20604 61.3099 8.20432" fill="#C3AD62"/>
<path fill-rule="evenodd" clip-rule="evenodd" d="M61.2814 8.21464C60.7239 8.4203 60.1957 8.66383 59.7004 8.94522C59.646 8.97534 59.5925 9.00546 59.539 9.03816C59.5131 9.05279 59.4881 9.06914 59.4622 9.08376C59.3854 9.13023 59.3103 9.17756 59.2369 9.22403C58.6285 9.61471 58.1443 10.0209 57.7706 10.3909C57.7741 11.3857 58.0287 12.3228 58.474 13.142C58.5266 13.2392 58.5827 13.3356 58.6406 13.4294C59.1083 14.1824 59.7426 14.8226 60.4918 15.2976C60.3761 14.8166 60.2795 14.2297 60.2467 13.5533C60.2432 13.4664 60.2398 13.3778 60.238 13.2874C60.2372 13.2633 60.2363 13.2392 60.2363 13.2151C60.2259 12.525 60.2881 11.8228 60.4167 11.1112C60.4382 10.9915 60.4616 10.8719 60.4874 10.7523C60.5315 10.5432 60.5824 10.3332 60.6393 10.1224C60.7558 9.68355 60.8991 9.24124 61.0691 8.79721C61.1433 8.60101 61.2227 8.40481 61.3082 8.20947L61.2814 8.21464" fill="#D5BB57"/>
<path fill-rule="evenodd" clip-rule="evenodd" d="M1.99405 9.3862H3.37903C4.30792 9.3862 4.98094 9.21377 5.39811 8.86892C5.81528 8.52406 6.02386 8.01234 6.02386 7.33375C6.02386 6.64404 5.79859 6.14901 5.34805 5.84865C4.89751 5.54829 4.21893 5.39811 3.31229 5.39811H1.99405V9.3862ZM1.99405 11.0382V15.9107H0V3.71276H3.44578C5.01989 3.71276 6.18516 4.00756 6.94162 4.59715C7.69808 5.18675 8.0763 6.07669 8.0763 7.26701C8.0763 8.78549 7.28648 9.86733 5.70681 10.5125L9.15259 15.9107H6.88321L3.96306 11.0382H1.99405ZM17.8213 15.9107H10.9214V3.71276H17.8213V5.39811H12.9154V8.71874H17.5126V10.3874H12.9154V14.217H17.8213V15.9107ZM30.6199 15.9107H28.1753L22.1765 6.19072H22.1097L22.1514 6.73304C22.2293 7.76761 22.2682 8.71317 22.2682 9.56975V15.9107H20.4577V3.71276H22.8773L28.8594 13.3826H28.9095C28.8984 13.2547 28.8761 12.7889 28.8428 11.9851C28.8094 11.1814 28.7927 10.5543 28.7927 10.1037V3.71276H30.6199V15.9107ZM40.7403 15.9107H33.8404V3.71276H40.7403V5.39811H35.8344V8.71874H40.4316V10.3874H35.8344V14.217H40.7403V15.9107ZM35.9012 2.7366V2.52802C36.2182 2.13866 36.545 1.70481 36.8815 1.22646C37.218 0.748113 37.4836 0.339296 37.6783 0H39.956V0.175209C39.6668 0.514505 39.2343 0.952523 38.6586 1.48928C38.0829 2.02603 37.5976 2.4418 37.2027 2.7366H35.9012ZM49.8094 9.3862H51.1944C52.1233 9.3862 52.7963 9.21377 53.2135 8.86892C53.6307 8.52406 53.8392 8.01234 53.8392 7.33375C53.8392 6.64404 53.614 6.14901 53.1634 5.84865C52.7129 5.54829 52.0343 5.39811 51.1277 5.39811H49.8094V9.3862ZM49.8094 11.0382V15.9107H47.8154V3.71276H51.2612C52.8353 3.71276 54.0006 4.00756 54.757 4.59715C55.5135 5.18675 55.8917 6.07669 55.8917 7.26701C55.8917 8.78549 55.1019 9.86733 53.5222 10.5125L56.968 15.9107H54.6986L51.7785 11.0382H49.8094ZM72.1861 3.71276H75.8071C77.4869 3.71276 78.7009 3.9575 79.449 4.44697C80.1971 4.93645 80.5711 5.70959 80.5711 6.76641C80.5711 7.47837 80.3876 8.07074 80.0205 8.54353C79.6534 9.01632 79.125 9.31389 78.4353 9.43626V9.51969C79.2918 9.681 79.9218 9.99943 80.325 10.475C80.7283 10.9506 80.9299 11.5944 80.9299 12.4065C80.9299 13.5022 80.5475 14.3602 79.7827 14.9804C79.0179 15.6006 77.9541 15.9107 76.5914 15.9107H72.1861V3.71276ZM74.1802 8.75211H76.0991C76.9335 8.75211 77.5425 8.62001 77.9263 8.3558C78.3101 8.0916 78.502 7.64246 78.502 7.00836C78.502 6.43545 78.2948 6.02108 77.8804 5.76521C77.4661 5.50935 76.8083 5.38142 75.9073 5.38142H74.1802V8.75211ZM74.1802 10.3707V14.2337H76.2994C77.1337 14.2337 77.7636 14.0737 78.1891 13.7539C78.6147 13.4341 78.8274 12.9293 78.8274 12.2396C78.8274 11.6055 78.6105 11.1355 78.1766 10.8296C77.7428 10.5237 77.0837 10.3707 76.1993 10.3707H74.1802ZM90.3662 15.9107H83.4663V3.71276H90.3662V5.39811H85.4603V8.71874H90.0575V10.3874H85.4603V14.217H90.3662V15.9107ZM94.9967 9.3862H96.3817C97.3106 9.3862 97.9836 9.21377 98.4008 8.86892C98.8179 8.52406 99.0265 8.01234 99.0265 7.33375C99.0265 6.64404 98.8012 6.14901 98.3507 5.84865C97.9002 5.54829 97.2216 5.39811 96.3149 5.39811H94.9967V9.3862ZM94.9967 11.0382V15.9107H93.0027V3.71276H96.4484C98.0225 3.71276 99.1878 4.00756 99.9443 4.59715C100.701 5.18675 101.079 6.07669 101.079 7.26701C101.079 8.78549 100.289 9.86733 98.7095 10.5125L102.155 15.9107H99.8859L96.9657 11.0382H94.9967ZM108.137 15.9107H106.143V5.42314H102.556V3.71276H111.725V5.42314H108.137V15.9107Z" fill="white"/>
</svg>
